<?xml version="1.0" standalone="no"?>
<!DOCTYPE svg PUBLIC "-//W3C//DTD SVG 20010904//EN"
 "http://www.w3.org/TR/2001/REC-SVG-20010904/DTD/svg10.dtd">
<svg version="1.0" xmlns="http://www.w3.org/2000/svg"
 width="260.000000pt" height="260.000000pt" viewBox="0 0 260.000000 260.000000"
 preserveAspectRatio="xMidYMid meet">
<metadata>
Created by potrace 1.14, written by Peter Selinger 2001-2017
</metadata>
<g transform="translate(0.000000,260.000000) scale(0.100000,-0.100000)"
fill="#000000" stroke="none">
<path d="M1841 2555 c-34 -8 -102 -25 -150 -39 -175 -50 -273 -69 -281 -55 -6
9 -16 6 -40 -14 -18 -15 -37 -24 -43 -20 -7 4 -18 8 -26 10 -21 3 -81 -24 -81
-37 0 -7 -9 -5 -22 4 -13 9 -43 16 -70 16 -39 0 -54 -6 -83 -31 -31 -28 -35
-37 -35 -79 0 -27 -4 -52 -10 -55 -6 -3 -10 -20 -10 -36 0 -39 -34 -68 -77
-69 -29 0 -33 -3 -33 -28 0 -31 -19 -46 -70 -57 -19 -4 -41 -12 -49 -19 -11
-8 -15 -8 -18 2 -4 9 -87 12 -374 12 -362 0 -369 0 -369 -20 0 -20 7 -20 362
-20 l361 0 -23 -25 -23 -25 -339 0 c-330 0 -338 0 -338 -20 0 -19 8 -20 167
-22 l168 -3 3 -27 3 -28 -170 0 c-164 0 -171 -1 -171 -20 0 -18 7 -20 85 -20
83 0 84 0 76 -22 -7 -21 -16 -23 -85 -26 -68 -3 -76 -5 -76 -22 0 -19 7 -20
103 -20 133 0 148 -4 133 -36 -11 -23 -14 -24 -123 -24 -106 0 -113 -1 -113
-20 0 -19 7 -20 134 -20 87 0 137 -4 142 -11 3 -6 20 -17 38 -25 28 -12 13
-13 -141 -14 -166 0 -173 -1 -173 -20 0 -19 7 -20 214 -20 165 0 223 -3 256
-15 24 -8 53 -12 64 -8 35 11 58 15 134 20 62 4 72 7 72 23 0 12 -8 20 -24 22
l-25 3 30 33 c16 18 34 30 39 27 14 -8 13 -127 -1 -162 -6 -16 -13 -22 -16
-15 -4 9 -88 12 -374 12 -362 0 -369 0 -369 -20 0 -20 7 -20 371 -20 349 0
371 -1 364 -17 -3 -10 -11 -38 -16 -63 -11 -46 -20 -74 -45 -143 -14 -38 -10
-75 16 -127 4 -8 -6 -58 -24 -112 l-31 -98 -41 0 c-22 0 -63 7 -90 15 -37 11
-103 15 -268 15 -218 0 -219 0 -201 -20 17 -19 31 -20 312 -20 l294 0 -3 -27
-3 -28 -263 -3 c-258 -2 -262 -3 -252 -22 10 -19 22 -20 250 -20 l240 0 0 -25
0 -25 -207 0 c-205 0 -206 0 -188 -20 16 -18 33 -20 204 -22 l186 -3 3 -28 3
-27 -148 0 -148 -1 24 -19 c20 -17 39 -20 142 -20 65 0 119 -3 118 -7 -3 -39
-16 -46 -77 -45 -34 0 -62 -3 -62 -8 0 -10 59 -35 90 -36 14 -1 26 -2 27 -3 0
-1 -5 -27 -13 -58 -8 -32 -25 -123 -39 -203 -26 -154 -29 -160 -105 -212 -25
-17 -23 -17 54 -17 67 -1 87 3 143 30 52 25 68 38 80 66 8 20 12 45 9 56 -3
11 1 32 8 46 7 14 23 65 36 114 l23 87 182 0 183 0 16 -25 c9 -13 16 -27 16
-30 0 -3 -53 -5 -117 -6 l-118 -1 74 -14 c41 -7 96 -14 124 -16 42 -3 51 -7
59 -28 8 -22 4 -30 -42 -73 -28 -26 -50 -53 -47 -60 2 -7 26 -13 55 -15 50 -3
52 -4 52 -33 0 -40 39 -79 79 -79 16 0 33 -4 36 -10 3 -5 45 -10 93 -10 l87 0
-37 30 c-55 45 -83 96 -69 123 6 12 12 51 13 87 2 49 7 65 18 67 8 0 56 7 105
15 l90 13 -110 5 -110 5 -3 28 -3 27 228 1 c200 0 233 3 268 19 l40 19 -272 0
c-266 1 -272 1 -278 22 -4 11 -5 22 -3 24 2 2 159 5 349 7 l346 3 49 -75 c29
-44 72 -93 104 -118 135 -108 188 -161 201 -204 13 -41 16 -43 59 -49 25 -3
60 -13 78 -22 l32 -18 0 50 c0 50 0 51 -88 135 -49 47 -111 117 -138 156 -27
39 -79 107 -116 152 l-67 82 32 21 32 20 -40 3 c-39 3 -65 22 -65 49 0 10 23
13 93 13 81 0 96 3 112 20 18 20 17 20 -97 20 -109 0 -116 1 -138 25 l-23 25
165 0 c152 0 166 2 183 20 18 20 17 20 -188 20 l-206 0 -21 28 -22 27 253 3
c242 2 279 7 279 33 0 5 -125 9 -278 9 l-279 0 -23 25 -23 25 329 2 c304 3
329 4 332 20 3 17 -19 18 -345 18 l-349 0 -29 30 -29 30 377 0 c370 0 377 0
377 20 0 20 -7 20 -396 20 -366 0 -398 1 -410 18 -7 9 -14 20 -14 25 0 4 185
7 410 7 407 0 410 0 410 21 0 20 -2 20 -420 17 l-421 -3 -11 36 c-8 27 -7 55
1 105 7 38 15 96 20 129 9 68 23 100 47 109 8 3 49 6 90 6 59 0 74 -3 74 -15
0 -13 41 -15 310 -15 303 0 310 0 310 20 0 19 -7 20 -207 20 -188 0 -245 5
-167 13 16 2 36 6 44 10 8 3 29 8 45 10 17 3 39 8 50 10 11 3 68 6 128 6 100
1 107 2 107 21 0 18 -7 20 -62 20 l-63 1 35 29 c20 17 47 30 63 30 20 0 27 5
27 20 0 18 -7 20 -60 20 -57 0 -59 1 -51 23 7 18 17 23 60 25 43 3 51 6 51 23
0 18 -9 19 -310 19 -303 0 -310 0 -310 -20 0 -19 7 -20 235 -20 l235 0 -16
-25 -16 -25 -216 -2 c-197 -3 -217 -5 -220 -20 -3 -17 12 -18 208 -18 193 0
211 -2 208 -17 -6 -32 -50 -36 -368 -36 -226 0 -316 8 -348 30 l-27 18 48 3
c39 3 47 6 47 23 0 10 -6 19 -14 19 -9 0 -12 7 -9 20 3 11 9 20 14 20 5 0 8
21 7 47 -2 29 2 48 10 51 21 7 13 39 -17 71 -25 27 -27 31 -10 31 12 0 19 7
19 19 0 15 -11 19 -71 24 -71 6 -99 18 -99 43 0 11 19 14 85 14 78 0 85 2 85
20 0 19 -7 20 -214 20 l-213 0 5 25 4 25 209 0 c202 0 209 1 209 20 0 19 -7
20 -215 20 -205 0 -215 1 -225 20 -6 11 -8 25 -5 30 4 6 93 10 226 10 214 0
219 0 219 21 0 20 -4 20 -204 17 -179 -3 -203 -1 -196 12 15 27 92 41 246 43
142 2 149 3 149 22 0 16 -6 20 -27 18 -16 -1 -28 1 -28 5 0 19 282 79 288 61
2 -5 130 -9 313 -9 302 0 309 0 309 20 0 19 -7 20 -200 20 -145 0 -215 4 -257
15 -70 18 -216 18 -302 0z m-411 -442 c0 -4 -10 -17 -22 -30 -16 -17 -32 -23
-65 -23 -41 0 -43 1 -43 30 l0 30 65 0 c36 0 65 -3 65 -7z m98 -51 c-35 -4
-41 0 -32 21 9 24 38 25 51 2 10 -18 9 -20 -19 -23z m-138 -67 c0 -18 -5 -25
-18 -25 -10 0 -29 11 -42 25 l-23 25 41 0 c38 0 42 -2 42 -25z m129 22 c-2 -1
-12 -9 -22 -16 -15 -12 -17 -12 -11 3 3 9 13 16 22 16 8 0 13 -1 11 -3z m-878
-105 c-21 -39 -36 -43 -147 -40 l-109 3 -3 28 -3 27 136 0 c128 0 135 -1 126
-18z m749 -4 c0 -19 -2 -20 -10 -8 -13 19 -13 30 0 30 6 0 10 -10 10 -22z
m-1035 -87 c-6 -5 -30 -5 -55 -1 l-45 7 55 2 c32 0 50 -3 45 -8z m215 2 c0
-42 -119 -62 -140 -24 -5 11 -10 22 -10 25 0 3 34 6 75 6 41 0 75 -3 75 -7z
m1930 -87 c0 -3 -4 -8 -10 -11 -5 -3 -10 -1 -10 4 0 6 5 11 10 11 6 0 10 -2
10 -4z m-2095 -136 c3 -5 -3 -10 -15 -10 -12 0 -18 5 -15 10 3 6 10 10 15 10
5 0 12 -4 15 -10z m932 -126 c25 -7 40 -44 27 -66 -12 -18 -5 -79 12 -105 8
-12 14 -33 14 -45 1 -21 2 -22 14 -5 14 18 42 25 31 7 -3 -5 -1 -10 4 -10 6 0
11 5 11 12 0 9 3 9 11 1 6 -6 9 -21 7 -34 -3 -23 -7 -24 -90 -27 -72 -2 -88 0
-88 12 0 8 -3 21 -6 30 -5 13 1 16 31 16 37 0 38 0 20 20 -10 11 -28 20 -40
20 -25 0 -42 39 -23 51 7 4 8 14 3 25 -5 11 -9 49 -10 87 l-3 67 26 -25 c14
-14 36 -28 49 -31z m113 -321 c0 -3 -7 -15 -17 -25 -12 -14 -31 -18 -78 -18
-61 0 -62 1 -57 25 4 24 7 25 78 25 41 0 74 -3 74 -7z m-98 -95 c-9 -9 -15 -9
-24 0 -9 9 -7 12 12 12 19 0 21 -3 12 -12z m382 -204 c15 -14 26 -27 24 -30
-3 -2 -83 -3 -179 -2 l-174 3 45 27 c41 25 54 27 150 27 98 0 107 -1 134 -25z
m-724 -14 c9 -18 8 -20 -15 -20 -23 0 -24 2 -15 20 6 11 13 20 15 20 2 0 9 -9
15 -20z m5 -78 c-3 -7 -5 -18 -5 -23 0 -5 -18 -9 -40 -9 -43 0 -45 2 -29 31
12 24 83 25 74 1z m818 -7 l18 -25 -246 0 -245 0 0 25 0 25 228 0 227 -1 18
-24z m-813 -91 c6 -14 10 -27 10 -30 0 -2 -34 -4 -75 -4 -41 0 -75 2 -75 5 0
2 5 16 12 30 10 22 17 25 65 25 48 0 54 -3 63 -26z m915 -1 l30 -28 -295 -3
c-162 -1 -300 0 -307 3 -7 2 -13 16 -13 30 l0 25 278 0 277 0 30 -27z m-879
-95 c4 -13 6 -24 5 -26 -1 -3 -196 -5 -226 -2 -3 0 2 11 11 25 15 24 21 25
109 25 88 0 94 -1 101 -22z m966 5 c41 -37 28 -38 -314 -36 l-333 2 -7 26 -6
25 321 0 c284 0 322 -2 339 -17z m-926 -100 c7 -10 14 -21 14 -25 0 -5 -72 -8
-160 -8 -88 0 -160 2 -160 4 0 3 4 15 9 28 8 23 11 23 146 21 119 -2 139 -4
151 -20z"/>
<path d="M0 2520 c0 -20 7 -20 370 -20 363 0 370 0 370 20 0 20 -7 20 -370 20
-363 0 -370 0 -370 -20z"/>
<path d="M0 2425 l0 -25 370 0 370 1 0 24 0 24 -370 1 -370 0 0 -25z"/>
<path d="M1984 2435 c-3 -8 -3 -19 0 -24 4 -6 121 -10 311 -11 l305 -1 0 26 0
26 -306 -1 c-251 -1 -306 -4 -310 -15z"/>
<path d="M0 2330 c0 -20 7 -20 370 -20 363 0 370 0 370 20 0 20 -7 20 -370 20
-363 0 -370 0 -370 -20z"/>
<path d="M1980 2330 c0 -20 7 -20 310 -20 303 0 310 0 310 20 0 20 -7 20 -310
20 -303 0 -310 0 -310 -20z"/>
<path d="M0 2230 c0 -20 7 -20 370 -20 363 0 370 0 370 20 0 20 -7 20 -370 20
-363 0 -370 0 -370 -20z"/>
<path d="M1982 2233 c3 -17 27 -18 311 -21 302 -2 307 -2 307 18 0 20 -6 20
-311 20 -290 0 -310 -1 -307 -17z"/>
<path d="M0 2140 c0 -20 7 -20 370 -20 363 0 370 0 370 20 0 20 -7 20 -370 20
-363 0 -370 0 -370 -20z"/>
<path d="M1980 2140 c0 -20 7 -20 310 -20 303 0 310 0 310 20 0 20 -7 20 -310
20 -303 0 -310 0 -310 -20z"/>
<path d="M1982 2043 c3 -17 27 -18 311 -21 302 -2 307 -2 307 18 0 20 -6 20
-311 20 -290 0 -310 -1 -307 -17z"/>
<path d="M1987 1963 c-4 -3 -7 -12 -7 -20 0 -10 58 -13 310 -13 303 0 310 0
310 20 0 20 -7 20 -303 20 -167 0 -307 -3 -310 -7z"/>
<path d="M1980 1470 c0 -20 7 -20 310 -20 303 0 310 0 310 20 0 20 -7 20 -310
20 -303 0 -310 0 -310 -20z"/>
<path d="M0 1375 l0 -26 170 1 c164 2 172 3 198 25 l27 23 -197 2 -198 1 0
-26z"/>
<path d="M1976 1384 c-3 -9 -6 -20 -6 -24 0 -5 142 -9 315 -10 l315 0 0 25 0
25 -309 0 c-272 0 -310 -2 -315 -16z"/>
<path d="M0 1280 c0 -19 7 -20 140 -20 77 0 140 2 140 4 0 2 3 11 6 20 5 14
-11 16 -140 16 -139 0 -146 -1 -146 -20z"/>
<path d="M1915 1280 c-18 -20 -17 -20 333 -20 345 0 352 0 352 20 0 20 -7 20
-333 20 -321 0 -335 -1 -352 -20z"/>
<path d="M0 1180 c0 -19 7 -20 130 -20 123 0 130 1 130 20 0 19 -7 20 -130 20
-123 0 -130 -1 -130 -20z"/>
<path d="M0 1090 c0 -19 7 -20 140 -20 77 0 140 2 140 4 0 2 -3 11 -6 20 -5
14 -27 16 -140 16 -127 0 -134 -1 -134 -20z"/>
<path d="M0 990 c0 -19 7 -20 182 -20 180 0 181 0 163 20 -17 18 -31 20 -182
20 -156 0 -163 -1 -163 -20z"/>
</g>
</svg>
